<svg xmlns="http://www.w3.org/2000/svg" viewBox="0 0 960 540">
  <rect width="960" height="540" fill="#031123"/>
  <text x="60" y="70" fill="#f6fbff" font-family="monospace" font-size="20">Policy Enforcement</text>
  <!-- Table lines -->
  <line x1="60" y1="140" x2="760" y2="140" stroke="#1a4870" stroke-width="2"/>
  <line x1="160" y1="100" x2="160" y2="260" stroke="#1a4870" stroke-width="1"/>
  <line x1="360" y1="100" x2="360" y2="260" stroke="#1a4870" stroke-width="1"/>
  <line x1="560" y1="100" x2="560" y2="260" stroke="#1a4870" stroke-width="1"/>
  <line x1="760" y1="100" x2="760" y2="260" stroke="#1a4870" stroke-width="1"/>
  <line x1="60" y1="180" x2="760" y2="180" stroke="#123454" stroke-width="1"/>
  <line x1="60" y1="220" x2="760" y2="220" stroke="#123454" stroke-width="1"/>
  <line x1="60" y1="260" x2="760" y2="260" stroke="#123454" stroke-width="1"/>
  <!-- Header -->
  <text x="110" y="130" fill="#c2e4ff" font-size="12" text-anchor="middle">Scope</text>
  <text x="260" y="130" fill="#c2e4ff" font-size="12" text-anchor="middle">Requirement</text>
  <text x="460" y="130" fill="#c2e4ff" font-size="12" text-anchor="middle">Automation</text>
  <text x="660" y="130" fill="#c2e4ff" font-size="12" text-anchor="middle">Ops Note</text>
  <!-- Rows -->
  <text x="110" y="160" fill="#a8d8ff" font-size="12" text-anchor="middle">feature/*</text>
  <text x="260" y="160" fill="#cfe6ff" font-size="12" text-anchor="middle">Encourage signing</text>
  <text x="460" y="160" fill="#f6fbff" font-size="12" text-anchor="middle">Client hook</text>
  <text x="660" y="160" fill="#ffdca8" font-size="12" text-anchor="middle">Weekly audit</text>
  <text x="110" y="200" fill="#a8d8ff" font-size="12" text-anchor="middle">main</text>
  <text x="260" y="200" fill="#cfe6ff" font-size="12" text-anchor="middle">Signed commits</text>
  <text x="460" y="200" fill="#f6fbff" font-size="12" text-anchor="middle">Branch protection</text>
  <text x="660" y="200" fill="#ffdca8" font-size="12" text-anchor="middle">Fail CI</text>
  <text x="110" y="240" fill="#a8d8ff" font-size="12" text-anchor="middle">release/*</text>
  <text x="260" y="240" fill="#cfe6ff" font-size="12" text-anchor="middle">Signed tags</text>
  <text x="460" y="240" fill="#f6fbff" font-size="12" text-anchor="middle">Pipeline signs</text>
  <text x="660" y="240" fill="#ffdca8" font-size="12" text-anchor="middle">Store attestation</text>
</svg>
