<svg xmlns="http://www.w3.org/2000/svg" viewBox="0 0 960 540">
  <rect width="960" height="540" fill="#021021"/>
  <text x="60" y="80" fill="#f5f9ff" font-family="'Fira Code', monospace" font-size="28">Monorepo Dependency Mesh</text>
  <g stroke="#7bd3ff" stroke-width="3">
    <circle cx="200" cy="220" r="50" fill="#102944"/>
    <circle cx="360" cy="140" r="50" fill="#102944"/>
    <circle cx="360" cy="300" r="50" fill="#102944"/>
    <circle cx="520" cy="220" r="50" fill="#102944"/>
    <circle cx="680" cy="140" r="50" fill="#102944"/>
    <circle cx="680" cy="300" r="50" fill="#102944"/>
  </g>
  <g stroke="#7bd3ff" stroke-width="2" fill="none">
    <line x1="250" y1="200" x2="310" y2="160"/>
    <line x1="250" y1="240" x2="310" y2="280"/>
    <line x1="410" y1="160" x2="470" y2="200"/>
    <line x1="410" y1="280" x2="470" y2="240"/>
    <line x1="570" y1="200" x2="630" y2="160"/>
    <line x1="570" y1="240" x2="630" y2="280"/>
  </g>
  <g fill="#f5f9ff" font-family="'Fira Code', monospace" font-size="18" text-anchor="middle">
    <text x="200" y="225">Core Lib</text>
    <text x="360" y="145">Service A</text>
    <text x="360" y="305">Service B</text>
    <text x="520" y="225">Shared UI</text>
    <text x="680" y="145">App Web</text>
    <text x="680" y="305">App Mobile</text>
  </g>
  <g fill="#9fd6ff" font-family="'Fira Code', monospace" font-size="18">
    <text x="60" y="420">• CODEOWNERS define stewardship for each package.</text>
    <text x="60" y="450">• Dependency graphs inform selective testing + deployment.</text>
  </g>
</svg>
