<svg xmlns="http://www.w3.org/2000/svg" viewBox="0 0 960 540">
  <rect width="960" height="540" fill="#011527"/>
  <text x="60" y="80" fill="#f6fbff" font-family="monospace" font-size="28">Git Recovery Matrix</text>
  <!-- Table lines -->
  <line x1="60" y1="140" x2="760" y2="140" stroke="#195079" stroke-width="2"/>
  <line x1="260" y1="110" x2="260" y2="260" stroke="#195079" stroke-width="1"/>
  <line x1="460" y1="110" x2="460" y2="260" stroke="#195079" stroke-width="1"/>
  <line x1="560" y1="110" x2="560" y2="260" stroke="#195079" stroke-width="1"/>
  <line x1="760" y1="110" x2="760" y2="260" stroke="#195079" stroke-width="1"/>
  <line x1="60" y1="180" x2="760" y2="180" stroke="#123556" stroke-width="1"/>
  <line x1="60" y1="220" x2="760" y2="220" stroke="#123556" stroke-width="1"/>
  <line x1="60" y1="260" x2="760" y2="260" stroke="#123556" stroke-width="1"/>
  <!-- Header -->
  <text x="160" y="130" fill="#c0e4ff" font-size="16" text-anchor="middle">Scenario</text>
  <text x="360" y="130" fill="#c0e4ff" font-size="16" text-anchor="middle">Primary Command</text>
  <text x="510" y="130" fill="#c0e4ff" font-size="16" text-anchor="middle">Safety</text>
  <text x="660" y="130" fill="#c0e4ff" font-size="16" text-anchor="middle">Window</text>
  <!-- Rows -->
  <text x="160" y="160" fill="#f6fbff" font-size="14" text-anchor="middle">Lost commit</text>
  <text x="360" y="160" fill="#f6fbff" font-size="14" text-anchor="middle">git reflog</text>
  <text x="510" y="160" fill="#9ef1d3" font-size="14" text-anchor="middle">Safe</text>
  <text x="660" y="160" fill="#ffdca8" font-size="14" text-anchor="middle">Indefinite</text>
  <text x="160" y="200" fill="#f6fbff" font-size="14" text-anchor="middle">Deleted branch</text>
  <text x="360" y="200" fill="#f6fbff" font-size="14" text-anchor="middle">git branch -r</text>
  <text x="510" y="200" fill="#9ef1d3" font-size="14" text-anchor="middle">Safe</text>
  <text x="660" y="200" fill="#ffdca8" font-size="14" text-anchor="middle">30 days</text>
  <text x="160" y="240" fill="#f6fbff" font-size="14" text-anchor="middle">Staged file</text>
  <text x="360" y="240" fill="#f6fbff" font-size="14" text-anchor="middle">git fsck</text>
  <text x="510" y="240" fill="#f7cc8f" font-size="14" text-anchor="middle">Caution</text>
  <text x="660" y="240" fill="#ffdca8" font-size="14" text-anchor="middle">Blob recovery</text>
</svg>
