<svg xmlns="http://www.w3.org/2000/svg" width="640" height="360" viewBox="0 0 640 360">
  <rect width="640" height="360" fill="#0d1117" />
  <g font-family="'Fira Sans', Arial, sans-serif" fill="#c9d1d9" text-anchor="middle">
    <text x="320" y="40" font-size="24">Binary Heap Layers</text>
    <circle cx="320" cy="90" r="24" fill="#238636" />
    <text x="320" y="96" font-size="16">50</text>
    <line x1="320" y1="114" x2="180" y2="170" stroke="#58a6ff" stroke-width="2" />
    <line x1="320" y1="114" x2="460" y2="170" stroke="#58a6ff" stroke-width="2" />
    <circle cx="180" cy="170" r="22" fill="#238636" />
    <text x="180" y="176" font-size="14">30</text>
    <circle cx="460" cy="170" r="22" fill="#238636" />
    <text x="460" y="176" font-size="14">40</text>
    <line x1="180" y1="192" x2="120" y2="240" stroke="#58a6ff" stroke-width="2" />
    <line x1="180" y1="192" x2="240" y2="240" stroke="#58a6ff" stroke-width="2" />
    <line x1="460" y1="192" x2="400" y2="240" stroke="#58a6ff" stroke-width="2" />
    <line x1="460" y1="192" x2="520" y2="240" stroke="#58a6ff" stroke-width="2" />
    <circle cx="120" cy="240" r="20" fill="#1f6feb" />
    <text x="120" y="246" font-size="12">10</text>
    <circle cx="240" cy="240" r="20" fill="#1f6feb" />
    <text x="240" y="246" font-size="12">20</text>
    <circle cx="400" cy="240" r="20" fill="#1f6feb" />
    <text x="400" y="246" font-size="12">35</text>
    <circle cx="520" cy="240" r="20" fill="#1f6feb" />
    <text x="520" y="246" font-size="12">37</text>
    <text x="320" y="310" font-size="14">Array index relationships: parent(i) = (i - 1) / 2, left(i) = 2i + 1, right(i) = 2i + 2</text>
  </g>
</svg>
