<svg width="24" height="24" viewBox="0 0 24 24" fill="none" xmlns="http://www.w3.org/2000/svg">
  <!-- TSI Letters in a modern, clean design -->
  <rect x="2" y="6" width="20" height="12" rx="2" fill="none" stroke="currentColor" stroke-width="1.5"/>
  
  <!-- T -->
  <line x1="6" y1="9" x2="10" y2="9" stroke="currentColor" stroke-width="1.2"/>
  <line x1="8" y1="9" x2="8" y2="15" stroke="currentColor" stroke-width="1.2"/>
  
  <!-- S -->
  <path d="M12 11c0-0.5 0.5-1 1-1h1c0.5 0 1 0.5 1 1s-0.5 1-1 1h-1c-0.5 0-1 0.5-1 1s0.5 1 1 1h1c0.5 0 1-0.5 1-1" 
        fill="none" stroke="currentColor" stroke-width="1.2" stroke-linecap="round"/>
  
  <!-- I -->
  <line x1="17" y1="10" x2="17" y2="14" stroke="currentColor" stroke-width="1.2"/>
  
  <!-- Institute/Education symbol - small graduation cap -->
  <path d="M12 3L4 6l8 3 8-3-8-3z" fill="currentColor" opacity="0.6"/>
  <path d="M4 6v6c0 2 3.6 4 8 4s8-2 8-4V6" fill="none" stroke="currentColor" stroke-width="1" opacity="0.4"/>
</svg>